PathFileType	4	(X/Y/Z)	/Users/itak/Documents/Research/Walk-IL/dataset/trc/00025_00004.trc
DataRate	CameraRate	NumFrames	NumMarkers	Units	OrigDataRate	OrigDataStartFrame	OrigNumFrames
100.000000	100.000000	4	53	mm	100.000000	645	860
Frame#	Time	RPSI			LPSI			L3			STRN			T10			C7			CLAV			RBAK			LBAK			LSHO			LUPA			LAEL			LAOL			LWTS			LWPS			LFRA			LIFD			LHPS			LHTS			RSHO			RUPA			RAEL			RAOL			RWTS			RWPS			RFRA			RIFD			RHTS			RHPS			RBHD			LFHD			RFHD			LBHD			LHIP			RHIP			RASI			LASI			LKNE			LTHI			LANK			LTIP			LTOE			LMT1			LMT5			LHEE			RKNE			RTHI			RANK			RTIP			RTOE			RMT1			RMT5			RHEE			
		X1	Y1	Z1	X2	Y2	Z2	X3	Y3	Z3	X4	Y4	Z4	X5	Y5	Z5	X6	Y6	Z6	X7	Y7	Z7	X8	Y8	Z8	X9	Y9	Z9	X10	Y10	Z10	X11	Y11	Z11	X12	Y12	Z12	X13	Y13	Z13	X14	Y14	Z14	X15	Y15	Z15	X16	Y16	Z16	X17	Y17	Z17	X18	Y18	Z18	X19	Y19	Z19	X20	Y20	Z20	X21	Y21	Z21	X22	Y22	Z22	X23	Y23	Z23	X24	Y24	Z24	X25	Y25	Z25	X26	Y26	Z26	X27	Y27	Z27	X28	Y28	Z28	X29	Y29	Z29	X30	Y30	Z30	X31	Y31	Z31	X32	Y32	Z32	X33	Y33	Z33	X34	Y34	Z34	X35	Y35	Z35	X36	Y36	Z36	X37	Y37	Z37	X38	Y38	Z38	X39	Y39	Z39	X40	Y40	Z40	X41	Y41	Z41	X42	Y42	Z42	X43	Y43	Z43	X44	Y44	Z44	X45	Y45	Z45	X46	Y46	Z46	X47	Y47	Z47	X48	Y48	Z48	X49	Y49	Z49	X50	Y50	Z50	X51	Y51	Z51	X52	Y52	Z52	X53	Y53	Z53	

646	6.45	-611.3469848632812	1049.597045898438	632.2623291015625	-485.3905944824219	1035.437133789062	529.7352905273438	-543.3101196289062	1107.2197265625	564.7554321289062	-418.5919799804688	1301.59326171875	745.2024536132812	-545.4688720703125	1249.860473632812	531.251220703125	-496.6792297363281	1517.403076171875	558.8077392578125	-432.0365295410156	1425.380126953125	700.1028442382812	-601.0557250976562	1385.872924804688	552.9559326171875	-425.2434997558594	1470.003662109375	496.0369567871094	-311.5091857910156	1470.367065429688	546.4716186523438	-266.9086608886719	1342.997436523438	479.2870483398438	-256.4130249023438	1126.819458007812	466.0806579589844	-363.2607116699219	1113.612060546875	463.5412902832031	-247.2288970947266	941.1442260742188	658.80517578125	-244.7850189208984	889.3244018554688	586.2578125	-239.7002410888672	1022.688659667969	512.6255493164062	-236.0068511962891	791.9653930664062	769.5711669921875	-223.1063232421875	823.7208251953125	652.2612915039062	-217.7720336914062	865.2268676757812	710.2723388671875	-613.9827880859375	1512.482421875	706.8297729492188	-690.512451171875	1452.444702148438	723.4100341796875	-772.8133544921875	1201.410278320312	676.9945068359375	-688.3584594726562	1158.2841796875	644.7425537109375	-766.6710815429688	921.4463500976562	758.4616088867188	-848.6737670898438	933.1417846679688	717.9432373046875	-799.114013671875	1129.732543945312	687.426025390625	-797.0009765625	737.773681640625	734.2867431640625	-797.2835693359375	811.2340698242188	776.2158813476562	-861.2672729492188	828.1821899414062	739.9695434570312	-387.4779052734375	1694.2666015625	600.2353515625	-318.9285278320312	1645.2958984375	802.1143188476562	-265.2046813964844	1635.207153320312	720.5863647460938	-463.2520751953125	1705.5166015625	723.45166015625	-342.2690734863281	928.4732055664062	545.1924438476562	-622.8064575195312	950.9202880859375	795.291748046875	-501.7238464355469	986.1967163085938	823.6248779296875	-320.1933898925781	984.1153564453125	673.39501953125	-423.8773803710938	491.6190490722656	640.7681274414062	-379.8982849121094	624.7962036132812	596.1123046875	-562.5037841796875	41.66552352905273	489.3456726074219	-486.6802368164062	267.0308227539062	539.7442626953125	-610.2339477539062	38.26786422729492	712.2193603515625	-627.048583984375	47.92694091796875	654.6753540039062	-529.2979736328125	40.07706069946289	610.6929931640625	-619.8678588867188	59.44444274902344	426.3101196289062	-507.41748046875	548.6184692382812	923.7630615234375	-586.3505859375	802.6509399414062	859.1188354492188	-532.2131958007812	54.8824462890625	966.4961547851562	-513.0556030273438	428.9364624023438	942.8363647460938	-359.6067810058594	100.4861907958984	1115.903076171875	-374.8665466308594	89.58256530761719	1047.711059570312	-459.508544921875	77.71079254150391	1094.283935546875	-530.732177734375	42.99988555908203	897.0250244140625	
647	6.46	-608.2254028320312	1048.485961914062	641.4742431640625	-484.2313842773438	1034.786743164062	536.4658203125	-541.7164916992188	1106.557373046875	572.472900390625	-413.3538513183594	1300.52099609375	751.14013671875	-544.38037109375	1249.275268554688	539.2689208984375	-494.6920166015625	1516.695678710938	566.5794677734375	-427.57861328125	1424.401245117188	706.5146484375	-599.2703857421875	1385.24462890625	562.3172607421875	-424.4368591308594	1469.414428710938	502.5269165039062	-309.7276000976562	1469.701049804688	550.8511352539062	-266.6048583984375	1342.458984375	482.3818054199219	-256.8559265136719	1126.231201171875	468.0108337402344	-363.7464904785156	1113.362426757812	467.4474487304688	-244.6980743408203	938.7487182617188	658.9263916015625	-243.8300323486328	887.6329345703125	585.880126953125	-239.5798645019531	1021.528686523438	513.2896118164062	-231.9376220703125	788.3897705078125	767.9718627929688	-221.0761413574219	821.3341064453125	650.7290649414062	-214.5034484863281	862.1967163085938	709.0584716796875	-609.3699951171875	1511.568481445312	716.6331176757812	-685.603515625	1451.53857421875	734.5545043945312	-769.1244506835938	1200.592163085938	690.0174560546875	-685.3575439453125	1157.28076171875	656.2374877929688	-761.333251953125	921.0645751953125	772.7874755859375	-844.0634765625	932.4096069335938	733.6878662109375	-795.3223876953125	1128.870971679688	701.1787109375	-792.0996704101562	737.168701171875	750.5698852539062	-791.7274169921875	811.1028442382812	792.0068969726562	-856.3274536132812	827.69384765625	756.74365234375	-384.4027404785156	1693.501708984375	606.779296875	-313.6584167480469	1644.182373046875	807.8013916015625	-260.7804565429688	1634.279174804688	725.6488647460938	-458.7328491210938	1704.36328125	730.8135986328125	-340.6888732910156	928.2479858398438	548.9634399414062	-616.73583984375	949.540771484375	804.6188354492188	-495.1111145019531	985.0203857421875	830.6455688476562	-316.342529296875	983.3744506835938	676.9639892578125	-420.9765014648438	491.0079345703125	642.7483520507812	-377.4423522949219	624.496337890625	598.461181640625	-562.63134765625	42.24866104125977	489.4158630371094	-485.3888854980469	267.3020935058594	540.5029296875	-610.1290893554688	38.26232528686523	712.3339233398438	-626.8123168945312	48.18233871459961	654.8515625	-529.0924682617188	39.96049118041992	610.747314453125	-620.230712890625	60.81363677978516	426.6279602050781	-498.5385437011719	548.0573120117188	931.0577392578125	-579.5426635742188	801.374755859375	867.8541259765625	-512.4190673828125	55.18412399291992	982.8494262695312	-501.775634765625	429.0047302246094	951.879638671875	-336.1023254394531	106.7580032348633	1125.9443359375	-353.2573852539062	94.47518920898438	1058.438598632812	-436.0027465820312	81.38507843017578	1107.855346679688	-512.869140625	42.24279022216797	913.5895385742188	
648	6.47	-605.0120849609375	1047.346923828125	650.7080078125	-483.0060729980469	1034.119750976562	543.2696533203125	-539.8410034179688	1105.882202148438	580.382080078125	-408.0986022949219	1299.429443359375	757.0947875976562	-543.1974487304688	1248.66845703125	547.3372192382812	-492.5346984863281	1515.99365234375	574.40576171875	-423.0456848144531	1423.407958984375	712.9590454101562	-597.3224487304688	1384.609375	571.7266845703125	-423.4981384277344	1468.794311523438	509.1197509765625	-307.8349609375	1468.996215820312	555.3463134765625	-266.2264404296875	1341.901489257812	485.634033203125	-257.2196044921875	1125.652954101562	470.0590515136719	-364.1156005859375	1113.08935546875	471.4273071289062	-242.1356658935547	936.277099609375	658.9985961914062	-242.8257751464844	885.9122314453125	585.455078125	-239.3834533691406	1020.364685058594	514.0023803710938	-227.8753356933594	784.7030639648438	766.215087890625	-219.0392303466797	818.867431640625	649.0929565429688	-211.2452087402344	859.070068359375	707.7407836914062	-604.6007690429688	1510.666870117188	726.4185180664062	-680.5332641601562	1450.652954101562	745.646728515625	-765.2628173828125	1199.8076171875	702.979736328125	-682.1460571289062	1156.300903320312	667.7756958007812	-755.6847534179688	920.8042602539062	787.2667846679688	-839.1041259765625	931.69482421875	749.524658203125	-791.3534545898438	1128.028442382812	714.8789672851562	-786.7014770507812	736.6355590820312	767.2607421875	-785.813720703125	811.1220092773438	808.0499877929688	-850.9932250976562	827.283203125	773.6991577148438	-381.2091064453125	1692.708251953125	613.372802734375	-308.3309020996094	1643.068725585938	813.5453491210938	-256.3058471679688	1633.32666015625	730.7965698242188	-454.1382141113281	1703.204223632812	738.1911010742188	-339.0764770507812	928.06640625	552.8046875	-610.467529296875	948.1339721679688	813.9314575195312	-488.37890625	983.8464965820312	837.6434326171875	-312.4564208984375	982.6580810546875	680.560791015625	-417.9708557128906	490.4293823242188	644.8140869140625	-374.9224243164062	624.2288818359375	600.874267578125	-562.75830078125	42.92185974121094	489.5050354003906	-484.0567321777344	267.6307983398438	541.2994384765625	-610.0269165039062	38.2597541809082	712.467041015625	-626.53955078125	48.46012878417969	655.07421875	-528.88671875	39.83428955078125	610.8125610351562	-620.6237182617188	62.3048095703125	426.9960632324219	-489.5904846191406	547.3661499023438	938.1153564453125	-572.6347045898438	800.0172119140625	876.5310668945312	-492.8112182617188	55.61614990234375	998.317138671875	-490.4927368164062	428.9967651367188	960.554931640625	-312.8384399414062	113.0399398803711	1134.627807617188	-331.9833374023438	99.34848022460938	1067.916870117188	-412.6385803222656	85.15337371826172	1120.255737304688	-495.3031921386719	41.6170768737793	929.3284912109375	
649	6.48	-601.6813354492188	1046.187744140625	659.9863891601562	-481.701904296875	1033.434448242188	550.1650390625	-537.6898803710938	1105.202758789062	588.4885864257812	-402.8278503417969	1298.322875976562	763.069580078125	-541.9017333984375	1248.036865234375	555.46875	-490.2131958007812	1515.293090820312	582.2911376953125	-418.4377136230469	1422.404663085938	719.4349365234375	-595.2119750976562	1383.968872070312	581.1901245117188	-422.4194641113281	1468.152221679688	515.8115844726562	-305.8325805664062	1468.2587890625	559.953857421875	-265.7693786621094	1341.328002929688	489.0473022460938	-257.4856262207031	1125.086791992188	472.2286987304688	-364.3670043945312	1112.799194335938	475.4867248535156	-239.5448455810547	933.745361328125	659.0430908203125	-241.7754821777344	884.1727905273438	585.0075073242188	-239.1085662841797	1019.216064453125	514.7857055664062	-223.8295135498047	780.9299926757812	764.33251953125	-217.0052642822266	816.33056640625	647.3828125	-208.0076141357422	855.8683471679688	706.3511962890625	-599.6763305664062	1509.778198242188	736.1915893554688	-675.3060302734375	1449.790649414062	756.6929931640625	-761.2351684570312	1199.058227539062	715.875244140625	-678.723876953125	1155.352294921875	679.3563842773438	-749.7122802734375	920.6614990234375	801.8677978515625	-833.7981567382812	931.0053100585938	765.4219970703125	-787.1943359375	1127.20703125	728.52978515625	-780.8018798828125	736.1902465820312	784.2915649414062	-779.5233764648438	811.2718505859375	824.303955078125	-845.2439575195312	826.955322265625	790.7957763671875	-377.9019165039062	1691.884643554688	620.0113525390625	-302.9397583007812	1641.954833984375	819.3418579101562	-251.7754516601562	1632.342407226562	736.021728515625	-449.4686889648438	1702.05322265625	745.5867919921875	-337.4324951171875	927.9235229492188	556.7260131835938	-603.9915771484375	946.710693359375	823.2437133789062	-481.5001525878906	982.6842041015625	844.6233520507812	-308.5243530273438	981.9691162109375	684.188720703125	-414.8450317382812	489.8734436035156	646.9732055664062	-372.344482421875	623.9849853515625	603.3590698242188	-562.8787231445312	43.68820571899414	489.6143798828125	-482.6786193847656	267.9992980957031	542.1590576171875	-609.929443359375	38.26093292236328	712.616943359375	-626.23291015625	48.75759124755859	655.3391723632812	-528.68896484375	39.70038223266602	610.8949584960938	-621.0219116210938	63.92191314697266	427.4115600585938	-480.5546264648438	546.5494995117188	944.9421997070312	-565.55712890625	798.61083984375	885.1576538085938	-473.4837036132812	56.10784149169922	1012.860229492188	-479.2019653320312	428.9028625488281	968.859375	-289.9282531738281	119.1907958984375	1141.942626953125	-311.1646728515625	104.0758590698242	1076.141967773438	-389.5229187011719	88.87677764892578	1131.462036132812	-478.1141967773438	41.0731315612793	944.2112426757812	
